<svg xmlns="http://www.w3.org/2000/svg" width="34.875" height="34.875" viewBox="0 0 34.875 34.875">
    <path id="Icon_metro-facebook" data-name="Icon metro-facebook" d="M31.634,1.928H8.383A5.812,5.812,0,0,0,2.571,7.741V30.99A5.812,5.812,0,0,0,8.383,36.8H20.008V21.545H15.649V17.186h4.359v-3.27a5.449,5.449,0,0,1,5.449-5.449h5.449v4.359H25.457a1.09,1.09,0,0,0-1.09,1.09v3.27h5.994l-1.09,4.359h-4.9V36.8h7.266a5.812,5.812,0,0,0,5.812-5.813V7.741a5.813,5.813,0,0,0-5.812-5.813Z" transform="translate(-2.571 -1.928)" fill="#6cddf5"/>
</svg>
