<svg xmlns="http://www.w3.org/2000/svg" width="30.714" height="21.5" viewBox="0 0 30.714 21.5">
    <path d="M4.607,11.464A3.071,3.071,0,1,0,1.536,8.393,3.074,3.074,0,0,0,4.607,11.464Zm21.5,0a3.071,3.071,0,1,0-3.071-3.071A3.074,3.074,0,0,0,26.107,11.464ZM27.643,13H24.571a3.062,3.062,0,0,0-2.164.893,7.02,7.02,0,0,1,3.6,5.25h3.167a1.534,1.534,0,0,0,1.536-1.536V16.071A3.074,3.074,0,0,0,27.643,13ZM15.357,13A5.375,5.375,0,1,0,9.982,7.625,5.372,5.372,0,0,0,15.357,13Zm3.686,1.536h-.4a7.421,7.421,0,0,1-6.575,0h-.4a5.53,5.53,0,0,0-5.529,5.529v1.382a2.3,2.3,0,0,0,2.3,2.3H22.268a2.3,2.3,0,0,0,2.3-2.3V20.064A5.53,5.53,0,0,0,19.043,14.536ZM8.307,13.893A3.062,3.062,0,0,0,6.143,13H3.071A3.074,3.074,0,0,0,0,16.071v1.536a1.534,1.534,0,0,0,1.536,1.536H4.7A7.037,7.037,0,0,1,8.307,13.893Z" transform="translate(0 -2.25)" fill="#7dc6ff"/>
</svg>
